<mxfile host="app.diagrams.net" modified="2020-09-08T20:01:31.139Z" agent="5.0 (Windows NT 10.0; Win64; x64) AppleWebKit/537.36 (KHTML, like Gecko) Chrome/85.0.4183.83 Safari/537.36 Edg/85.0.564.44" etag="GhY8o_OMDNWyyJyfbUwS" version="13.6.9" type="github">
  <diagram id="iNf-rvrHFCksL9XbTv3f" name="Page-1">
    <mxGraphModel dx="1173" dy="517" grid="1" gridSize="10" guides="1" tooltips="1" connect="1" arrows="1" fold="1" page="1" pageScale="1" pageWidth="850" pageHeight="1100" math="0" shadow="0">
      <root>
        <mxCell id="0" />
        <mxCell id="1" parent="0" />
        <mxCell id="rGBCjCLrs5wc_k-IcGaG-17" style="edgeStyle=orthogonalEdgeStyle;rounded=0;orthogonalLoop=1;jettySize=auto;html=1;exitX=0.5;exitY=1;exitDx=0;exitDy=0;entryX=0.5;entryY=0;entryDx=0;entryDy=0;" edge="1" parent="1" source="rGBCjCLrs5wc_k-IcGaG-1" target="rGBCjCLrs5wc_k-IcGaG-3">
          <mxGeometry relative="1" as="geometry" />
        </mxCell>
        <mxCell id="rGBCjCLrs5wc_k-IcGaG-1" value="Start" style="ellipse;whiteSpace=wrap;html=1;" vertex="1" parent="1">
          <mxGeometry x="365" y="205" width="120" height="80" as="geometry" />
        </mxCell>
        <mxCell id="rGBCjCLrs5wc_k-IcGaG-18" style="edgeStyle=orthogonalEdgeStyle;rounded=0;orthogonalLoop=1;jettySize=auto;html=1;exitX=0.5;exitY=1;exitDx=0;exitDy=0;entryX=0.5;entryY=0;entryDx=0;entryDy=0;" edge="1" parent="1" source="rGBCjCLrs5wc_k-IcGaG-3" target="rGBCjCLrs5wc_k-IcGaG-16">
          <mxGeometry relative="1" as="geometry" />
        </mxCell>
        <mxCell id="rGBCjCLrs5wc_k-IcGaG-3" value="Input value1" style="shape=parallelogram;perimeter=parallelogramPerimeter;whiteSpace=wrap;html=1;fixedSize=1;" vertex="1" parent="1">
          <mxGeometry x="365" y="315" width="120" height="60" as="geometry" />
        </mxCell>
        <mxCell id="rGBCjCLrs5wc_k-IcGaG-8" value="" style="edgeStyle=orthogonalEdgeStyle;rounded=0;orthogonalLoop=1;jettySize=auto;html=1;" edge="1" parent="1" source="rGBCjCLrs5wc_k-IcGaG-5" target="rGBCjCLrs5wc_k-IcGaG-7">
          <mxGeometry relative="1" as="geometry" />
        </mxCell>
        <mxCell id="rGBCjCLrs5wc_k-IcGaG-5" value="Sum = value1 + value2" style="whiteSpace=wrap;html=1;" vertex="1" parent="1">
          <mxGeometry x="361" y="505" width="128" height="60" as="geometry" />
        </mxCell>
        <mxCell id="rGBCjCLrs5wc_k-IcGaG-10" value="" style="edgeStyle=orthogonalEdgeStyle;rounded=0;orthogonalLoop=1;jettySize=auto;html=1;" edge="1" parent="1" source="rGBCjCLrs5wc_k-IcGaG-7" target="rGBCjCLrs5wc_k-IcGaG-9">
          <mxGeometry relative="1" as="geometry" />
        </mxCell>
        <mxCell id="rGBCjCLrs5wc_k-IcGaG-7" value="Difference = value2 - value1" style="whiteSpace=wrap;html=1;" vertex="1" parent="1">
          <mxGeometry x="344" y="615" width="162" height="60" as="geometry" />
        </mxCell>
        <mxCell id="rGBCjCLrs5wc_k-IcGaG-14" value="" style="edgeStyle=orthogonalEdgeStyle;rounded=0;orthogonalLoop=1;jettySize=auto;html=1;" edge="1" parent="1" source="rGBCjCLrs5wc_k-IcGaG-9" target="rGBCjCLrs5wc_k-IcGaG-13">
          <mxGeometry relative="1" as="geometry" />
        </mxCell>
        <mxCell id="rGBCjCLrs5wc_k-IcGaG-9" value="Output Sum" style="shape=parallelogram;perimeter=parallelogramPerimeter;whiteSpace=wrap;html=1;fixedSize=1;" vertex="1" parent="1">
          <mxGeometry x="365" y="725" width="120" height="60" as="geometry" />
        </mxCell>
        <mxCell id="rGBCjCLrs5wc_k-IcGaG-13" value="Output Difference" style="shape=parallelogram;perimeter=parallelogramPerimeter;whiteSpace=wrap;html=1;fixedSize=1;" vertex="1" parent="1">
          <mxGeometry x="365" y="835" width="120" height="60" as="geometry" />
        </mxCell>
        <mxCell id="rGBCjCLrs5wc_k-IcGaG-19" style="edgeStyle=orthogonalEdgeStyle;rounded=0;orthogonalLoop=1;jettySize=auto;html=1;exitX=0.5;exitY=1;exitDx=0;exitDy=0;entryX=0.5;entryY=0;entryDx=0;entryDy=0;" edge="1" parent="1" source="rGBCjCLrs5wc_k-IcGaG-16" target="rGBCjCLrs5wc_k-IcGaG-5">
          <mxGeometry relative="1" as="geometry" />
        </mxCell>
        <mxCell id="rGBCjCLrs5wc_k-IcGaG-16" value="Input value2" style="shape=parallelogram;perimeter=parallelogramPerimeter;whiteSpace=wrap;html=1;fixedSize=1;" vertex="1" parent="1">
          <mxGeometry x="365" y="405" width="120" height="60" as="geometry" />
        </mxCell>
      </root>
    </mxGraphModel>
  </diagram>
</mxfile>
